<svg width="69" height="67" viewBox="0 0 69 67" fill="none" xmlns="http://www.w3.org/2000/svg">
<g filter="url(#filter0_d_11964_16657)">
<path d="M37.5028 33.3605C37.4581 33.2014 37.3521 33.0666 37.2081 32.9855C37.0642 32.9044 36.8939 32.8838 36.7347 32.928C36.6337 32.9564 36.5323 32.984 36.4305 33.0107C36.3488 33.0291 36.2717 33.0638 36.2037 33.1126C36.1357 33.1615 36.0783 33.2236 36.0349 33.2951C35.9914 33.3667 35.9628 33.4462 35.9508 33.5291C35.9388 33.6119 35.9436 33.6963 35.9649 33.7773C35.9862 33.8582 36.0236 33.9341 36.0749 34.0002C36.1262 34.0664 36.1902 34.1216 36.2633 34.1624C36.3364 34.2033 36.4169 34.229 36.5001 34.2381C36.5834 34.2471 36.6676 34.2393 36.7477 34.2151C36.8559 34.1866 36.9634 34.1574 37.0703 34.1276C37.2292 34.0831 37.364 33.9773 37.4451 33.8335C37.5262 33.6897 37.5469 33.5196 37.5028 33.3605Z" fill="#408F95"/>
<path d="M64.0541 37.2302C61.4859 37.8711 58.795 37.8305 56.2473 37.1126C56.6608 35.8562 56.8967 34.5482 56.9481 33.2266C57.1208 28.5631 55.0234 24.714 50.8825 22.0952C48.9507 20.8879 46.8228 20.0276 44.5947 19.5533C43.4088 19.2965 42.2433 19.1207 41.3419 19.0065C41.536 18.2632 41.7791 17.5335 42.0697 16.8223C42.1183 16.7113 42.1335 16.5885 42.1135 16.469C42.0934 16.3495 42.039 16.2384 41.9567 16.1494C41.8745 16.0603 41.7682 15.9972 41.6506 15.9676C41.5331 15.9381 41.4095 15.9435 41.295 15.9831C38.312 17.0239 35.6826 18.8838 33.7077 21.3498C31.2393 21.6312 29.3176 22.6283 28.1489 24.2367C28.1443 24.2431 28.1391 24.2506 28.1346 24.2572C28.0125 24.4397 25.3069 28.3893 20.5834 27.9123C22.156 26.4485 25.005 23.2183 25.713 18.5048C26.6477 12.2857 24.9594 7.79125 23.8844 5.68408C25.8907 6.37838 29.5781 8.36788 31.2142 13.8385C31.2808 14.0881 32.0325 16.6809 34.9481 18.4192C35.0901 18.5038 35.2598 18.5285 35.4201 18.488C35.5803 18.4474 35.7179 18.3449 35.8025 18.2029C35.8871 18.0609 35.9119 17.8912 35.8713 17.7309C35.8308 17.5707 35.7282 17.4332 35.5863 17.3485C33.0477 15.8354 32.424 13.5385 32.4186 13.5179C32.4166 13.5094 32.4142 13.5007 32.4116 13.4922C29.8859 5.02962 22.9598 4.12872 22.6661 4.095C22.5461 4.08114 22.4246 4.10244 22.3165 4.1563C22.2084 4.21017 22.1182 4.29429 22.057 4.39843C21.9958 4.50257 21.9661 4.62225 21.9717 4.74292C21.9772 4.86359 22.0177 4.98006 22.0881 5.07817C22.1252 5.12875 25.6971 10.2225 24.4805 18.32C23.5892 24.2509 18.8514 27.7515 18.8043 27.7863C18.7083 27.8557 18.634 27.951 18.5902 28.0611C18.5464 28.1712 18.5348 28.2914 18.557 28.4078C18.5791 28.5242 18.6339 28.6319 18.715 28.7183C18.7962 28.8046 18.9002 28.866 19.015 28.8953C19.7734 29.0923 20.5536 29.1931 21.3371 29.1955C26.1327 29.1955 28.9599 25.2545 29.161 24.9645C29.937 23.8987 31.1012 23.1755 32.6286 22.8032C31.2225 24.9078 30.1744 27.2307 29.5269 29.6776C29.2774 30.6835 28.8562 31.6387 28.2818 32.5013C27.8967 33.0793 27.4365 33.6035 26.9132 34.0602C23.4201 34.0682 19.9305 33.8381 16.4687 33.3715C16.4598 33.3701 16.4509 33.369 16.442 33.3681C7.67762 32.4341 4.38661 37.1064 4.25079 37.3058C4.19763 37.3838 4.16289 37.4729 4.14918 37.5663C4.13548 37.6597 4.14317 37.755 4.17167 37.845C5.15909 40.9631 6.76025 43.8521 8.88092 46.3421C11.15 50.3161 15.5239 53.4879 18.8036 55.4528C22.4826 57.6567 27.7748 58.9094 31.0123 58.9094C34.7604 58.9007 38.454 58.0111 41.7951 56.3124C42.9893 57.1143 45.0496 58.0673 48.1044 58.0673C49.4889 58.0571 50.8673 57.8829 52.2108 57.5485C52.3262 57.5204 52.4311 57.4599 52.5132 57.3743C52.5954 57.2887 52.6515 57.1814 52.6748 57.065C52.6982 56.9487 52.6878 56.828 52.645 56.7173C52.6022 56.6066 52.5288 56.5104 52.4332 56.44C52.4184 56.4291 50.9373 55.3218 49.7348 53.1008C49.6959 53.0288 49.6431 52.9651 49.5796 52.9135C49.5161 52.8618 49.443 52.8232 49.3646 52.7998C49.2861 52.7764 49.2038 52.7687 49.1224 52.7771C49.041 52.7855 48.962 52.8099 48.89 52.8489C48.818 52.8878 48.7544 52.9406 48.7027 53.0041C48.6511 53.0677 48.6125 53.1408 48.5892 53.2192C48.5658 53.2977 48.5582 53.38 48.5667 53.4614C48.5751 53.5428 48.5996 53.6218 48.6386 53.6938C49.2052 54.7471 49.9125 55.7185 50.7409 56.5812C47.035 57.2268 44.5447 56.4458 43.0697 55.6307C48.0608 52.7921 51.3685 48.8569 52.7606 46.9823C52.9998 46.9949 53.2435 47.0024 53.4918 47.0024C55.0623 47.0168 56.6192 46.7109 58.0674 46.1034C61.1394 44.7856 63.4119 42.0695 64.8214 38.0307C64.8592 37.9221 64.8662 37.8052 64.8417 37.6929C64.8173 37.5806 64.7622 37.4772 64.6826 37.3942C64.6031 37.3113 64.5021 37.2519 64.391 37.2227C64.2798 37.1935 64.1627 37.1956 64.0526 37.2287L64.0541 37.2302ZM31.0113 57.6635C28.5812 57.6635 22.9347 56.4751 19.4442 54.3838C16.3959 52.5576 12.3719 49.6625 10.1795 46.0912C11.2847 45.1927 15.1111 42.8033 21.3981 46.2746C21.5374 46.3487 24.8664 48.109 29.8583 48.9488C34.4135 49.715 41.2399 49.8061 48.0375 45.9672C49.0922 46.3745 50.1884 46.6653 51.3064 46.8342C48.6562 50.2067 41.5946 57.6635 31.0113 57.6635ZM57.5859 44.9559C53.1533 46.8633 48.3011 44.7291 48.2526 44.7072C48.1625 44.6657 48.0636 44.6467 47.9646 44.6518C47.8655 44.6569 47.7691 44.686 47.6837 44.7365C41.1338 48.5382 34.5106 48.4609 30.1078 47.7269C25.3061 46.9265 22.0185 45.1931 21.9934 45.1797C17.6598 42.787 14.3593 42.9944 12.3528 43.5895C11.2976 43.8963 10.3111 44.4026 9.44663 45.0809C7.70525 42.8956 6.3566 40.4245 5.46076 37.7778C6.21176 36.8924 9.32489 33.8657 16.2969 34.605C16.8565 34.6885 26.1626 36.0384 34.0261 34.7825C34.1873 34.7542 34.3308 34.6636 34.4258 34.5304C34.5208 34.3971 34.5596 34.2318 34.5338 34.0702C34.508 33.9086 34.4197 33.7637 34.2879 33.6666C34.1561 33.5696 33.9915 33.5283 33.8295 33.5516C32.1282 33.8124 30.4126 33.9698 28.6922 34.023C28.9134 33.7594 29.1209 33.4845 29.3137 33.1995C29.9684 32.2184 30.4489 31.1316 30.7341 29.9871C31.2984 27.7939 33.6073 20.7314 40.4263 17.6672C39.5419 20.3659 38.1885 26.4196 42.4116 29.6569C41.6606 30.6182 40.561 31.4301 39.1154 32.0811C39.0407 32.1147 38.9735 32.1627 38.9174 32.2223C38.8613 32.2819 38.8175 32.3519 38.7885 32.4284C38.7595 32.505 38.7459 32.5865 38.7484 32.6683C38.7509 32.7501 38.7694 32.8306 38.8031 32.9052C38.8367 32.9798 38.8846 33.0471 38.9442 33.1031C39.0038 33.1592 39.0739 33.203 39.1504 33.232C39.2269 33.261 39.3084 33.2747 39.3902 33.2722C39.472 33.2697 39.5525 33.2511 39.6271 33.2175C42.4419 31.9501 44.1411 30.1077 44.6772 27.7413C44.6794 27.7319 44.6814 27.7228 44.6829 27.7128C44.7014 27.6112 45.0987 25.2009 42.6919 23.2894C42.5624 23.1866 42.3974 23.1395 42.2332 23.1583C42.069 23.1772 41.9189 23.2605 41.8161 23.39C41.7133 23.5194 41.6661 23.6844 41.685 23.8487C41.7038 24.0129 41.7872 24.1629 41.9166 24.2657C43.6716 25.6592 43.4794 27.3301 43.4574 27.4849C43.3692 27.8665 43.2402 28.2375 43.0725 28.5914C40.466 26.4913 40.534 22.8942 41.0576 20.2276C41.9496 20.3379 43.1359 20.5128 44.3394 20.7739C44.346 20.7755 44.3536 20.777 44.3605 20.7783C46.4453 21.2311 48.4365 22.0397 50.2467 23.1686C54.0234 25.5697 55.8585 28.9381 55.7012 33.1802C55.6547 34.3784 55.4417 35.5642 55.0685 36.7036C54.5886 36.5093 54.1216 36.2847 53.6702 36.0312C53.5261 35.9501 53.3557 35.9296 53.1964 35.9741C53.0372 36.0187 52.9022 36.1247 52.8211 36.2688C52.74 36.4129 52.7195 36.5834 52.7641 36.7426C52.8086 36.9018 52.9146 37.0368 53.0588 37.1179C57.085 39.3802 61.2526 39.045 63.236 38.6907C61.9429 41.792 60.0453 43.8971 57.5859 44.9555V44.9559Z" fill="#408F95"/>
<path d="M22.7411 38.1344L21.9926 38.4341C21.9161 38.4642 21.8464 38.5091 21.7874 38.5662C21.7284 38.6233 21.6812 38.6915 21.6487 38.767C21.6161 38.8424 21.5988 38.9235 21.5977 39.0056C21.5966 39.0877 21.6118 39.1693 21.6423 39.2455C21.6728 39.3218 21.7181 39.3912 21.7756 39.4499C21.8331 39.5086 21.9016 39.5554 21.9772 39.5875C22.0528 39.6196 22.134 39.6364 22.2161 39.637C22.2983 39.6376 22.3797 39.622 22.4558 39.591L23.2044 39.2914C23.2808 39.2613 23.3505 39.2164 23.4096 39.1593C23.4686 39.1022 23.5157 39.0339 23.5483 38.9585C23.5808 38.8831 23.5981 38.802 23.5992 38.7199C23.6003 38.6378 23.5852 38.5562 23.5546 38.48C23.5241 38.4037 23.4788 38.3342 23.4213 38.2756C23.3639 38.2169 23.2953 38.1701 23.2197 38.138C23.1441 38.1059 23.0629 38.0891 22.9808 38.0885C22.8987 38.0878 22.8172 38.1035 22.7411 38.1344Z" fill="#408F95"/>
<path d="M35.4096 39.1187C35.4746 38.9686 35.478 38.799 35.419 38.6464C35.3601 38.4938 35.2435 38.3705 35.0945 38.3031C34.9455 38.2357 34.7759 38.2295 34.6224 38.286C34.4689 38.3425 34.3437 38.457 34.2739 38.6049C34.2163 38.7317 32.891 41.7364 35.2459 44.2444C35.3633 44.3573 35.5183 44.4227 35.6811 44.4279C35.8439 44.433 36.0028 44.3775 36.127 44.2721C36.1867 44.2162 36.2349 44.149 36.2686 44.0744C36.3023 43.9998 36.321 43.9193 36.3236 43.8375C36.3262 43.7556 36.3126 43.6741 36.2836 43.5976C36.2547 43.521 36.2109 43.4509 36.1548 43.3913C34.3827 41.5039 35.3643 39.2207 35.4096 39.1187Z" fill="#408F95"/>
<path d="M38.962 38.4285C39.0302 38.278 39.0357 38.1065 38.9775 37.9518C38.9192 37.7971 38.8018 37.672 38.6513 37.6038C38.5007 37.5356 38.3292 37.5301 38.1745 37.5884C38.0199 37.6466 37.8947 37.764 37.8265 37.9145C37.7691 38.0413 36.4437 41.046 38.7988 43.554C38.9216 43.6848 39.4473 43.7793 39.6798 43.5818C39.7407 43.5265 39.7899 43.4595 39.8244 43.3849C39.8588 43.3102 39.8779 43.2294 39.8805 43.1472C39.8831 43.065 39.8692 42.9831 39.8395 42.9065C39.8097 42.8298 39.7649 42.7599 39.7076 42.7009C37.9362 40.8144 38.9161 38.5327 38.962 38.4285Z" fill="#408F95"/>
<path d="M42.1683 37.0999C42.2334 36.9498 42.2368 36.7802 42.1778 36.6276C42.1189 36.475 42.0023 36.3517 41.8533 36.2843C41.7043 36.2169 41.5347 36.2107 41.3812 36.2672C41.2277 36.3237 41.1025 36.4382 41.0327 36.5861C40.975 36.7129 39.6498 39.7176 42.0047 42.2257C42.1274 42.3566 42.6486 42.4666 42.8856 42.2535C42.9459 42.1979 42.9944 42.1308 43.0285 42.0562C43.0625 41.9815 43.0814 41.9009 43.084 41.8189C43.0866 41.7369 43.0728 41.6553 43.0435 41.5786C43.0143 41.502 42.97 41.432 42.9134 41.3726C41.1405 39.4843 42.1242 37.1993 42.1683 37.0999Z" fill="#408F95"/>
</g>
<defs>
<filter id="filter0_d_11964_16657" x="-1" y="0" width="71" height="71" filterUnits="userSpaceOnUse" color-interpolation-filters="sRGB">
<feFlood flood-opacity="0" result="BackgroundImageFix"/>
<feColorMatrix in="SourceAlpha" type="matrix" values="0 0 0 0 0 0 0 0 0 0 0 0 0 0 0 0 0 0 127 0" result="hardAlpha"/>
<feOffset dy="4"/>
<feGaussianBlur stdDeviation="2"/>
<feComposite in2="hardAlpha" operator="out"/>
<feColorMatrix type="matrix" values="0 0 0 0 0 0 0 0 0 0 0 0 0 0 0 0 0 0 0.25 0"/>
<feBlend mode="normal" in2="BackgroundImageFix" result="effect1_dropShadow_11964_16657"/>
<feBlend mode="normal" in="SourceGraphic" in2="effect1_dropShadow_11964_16657" result="shape"/>
</filter>
</defs>
</svg>
